<mxfile host="65bd71144e">
    <diagram id="C8KxM7HJjtu_BQoHGOVi" name="Page-1">
        <mxGraphModel dx="511" dy="723" grid="1" gridSize="10" guides="1" tooltips="1" connect="1" arrows="1" fold="1" page="1" pageScale="1" pageWidth="850" pageHeight="1100" math="0" shadow="0">
            <root>
                <mxCell id="0"/>
                <mxCell id="1" parent="0"/>
                <mxCell id="12" value="" style="edgeStyle=none;html=1;" edge="1" parent="1" source="2" target="11">
                    <mxGeometry relative="1" as="geometry"/>
                </mxCell>
                <mxCell id="2" value="products = []&lt;br&gt;products&lt;br&gt;.add(newProduct)" style="rounded=0;whiteSpace=wrap;html=1;" vertex="1" parent="1">
                    <mxGeometry x="40" y="80" width="120" height="150" as="geometry"/>
                </mxCell>
                <mxCell id="3" value="Store&lt;br&gt;" style="text;html=1;align=center;verticalAlign=middle;resizable=0;points=[];autosize=1;strokeColor=none;fillColor=none;" vertex="1" parent="1">
                    <mxGeometry x="75" y="50" width="50" height="30" as="geometry"/>
                </mxCell>
                <mxCell id="8" value="" style="edgeStyle=none;html=1;entryX=1.037;entryY=0.994;entryDx=0;entryDy=0;entryPerimeter=0;" edge="1" parent="1" source="5" target="10">
                    <mxGeometry relative="1" as="geometry">
                        <mxPoint x="310" y="310" as="targetPoint"/>
                    </mxGeometry>
                </mxCell>
                <mxCell id="5" value="&lt;br&gt;reService.addCart&lt;br&gt;(newProduct)" style="rounded=0;whiteSpace=wrap;html=1;" vertex="1" parent="1">
                    <mxGeometry x="240" y="80" width="120" height="150" as="geometry"/>
                </mxCell>
                <mxCell id="6" value="Effects" style="text;html=1;align=center;verticalAlign=middle;resizable=0;points=[];autosize=1;strokeColor=none;fillColor=none;" vertex="1" parent="1">
                    <mxGeometry x="270" y="50" width="60" height="30" as="geometry"/>
                </mxCell>
                <mxCell id="9" value="- get dbProducts&lt;br&gt;- dbProducts.push&lt;br&gt;(newProdcut)&lt;br&gt;- update units" style="rounded=0;whiteSpace=wrap;html=1;" vertex="1" parent="1">
                    <mxGeometry x="240" y="320" width="120" height="150" as="geometry"/>
                </mxCell>
                <mxCell id="14" value="" style="edgeStyle=none;html=1;" edge="1" parent="1" source="10" target="9">
                    <mxGeometry relative="1" as="geometry"/>
                </mxCell>
                <mxCell id="10" value="Service" style="text;html=1;align=center;verticalAlign=middle;resizable=0;points=[];autosize=1;strokeColor=none;fillColor=none;" vertex="1" parent="1">
                    <mxGeometry x="240" y="290" width="60" height="30" as="geometry"/>
                </mxCell>
                <mxCell id="11" value="store.subscribe()" style="rounded=0;whiteSpace=wrap;html=1;" vertex="1" parent="1">
                    <mxGeometry x="40" y="440" width="120" height="150" as="geometry"/>
                </mxCell>
                <mxCell id="13" value="Component" style="text;html=1;align=center;verticalAlign=middle;resizable=0;points=[];autosize=1;strokeColor=none;fillColor=none;" vertex="1" parent="1">
                    <mxGeometry x="10" y="410" width="90" height="30" as="geometry"/>
                </mxCell>
                <mxCell id="65" value="Item 3" style="text;strokeColor=none;fillColor=none;align=left;verticalAlign=middle;spacingLeft=4;spacingRight=4;overflow=hidden;points=[[0,0.5],[1,0.5]];portConstraint=eastwest;rotatable=0;whiteSpace=wrap;html=1;" vertex="1" parent="1">
                    <mxGeometry x="120" y="340" width="140" height="30" as="geometry"/>
                </mxCell>
            </root>
        </mxGraphModel>
    </diagram>
</mxfile>
